<svg id="Ebene_1" data-name="Ebene 1" xmlns="http://www.w3.org/2000/svg" viewBox="0 0 803.6 753.48"><defs><style>.cls-1,.cls-3,.cls-4{fill:#1d1d1b;}.cls-2{fill:#778da9;}.cls-3{font-size:229.66px;}.cls-3,.cls-4{font-family:CenturyGothic-Bold, Century Gothic;font-weight:700;}.cls-4{font-size:164.04px;}</style></defs><path class="cls-1" d="M447.2,729.42A63.78,63.78,0,0,1,429,722.16Z" transform="translate(-123.63 -53.98)"/><path class="cls-2" d="M544.41,453.56c-14.55,48.88-36.28,79.54-53.82,98.68C480.74,563,459.3,584.2,427,621c-13.52,15.43-27.7,32.19-26.91,53.83.56,15.18,8.29,27.57,8.85,28.45a58,58,0,0,0,20,18.86l-66.22-26.37v-7.48a151.4,151.4,0,0,1,6.54-31.4c23-71.38,85.33-78.7,122-153.26a196,196,0,0,0,19.44-68.78c3.05-34.76-12.39-83.91-18.28-101.09,2.76-16.64,13.7-12.57,16.45-29.21C528.67,334,555.77,388.41,544.41,453.56Z" transform="translate(-123.63 -53.98)"/><path class="cls-2" d="M404.61,713.73S468,678.4,521.8,676.16l-3.93-16.82s-91.39,16.82-122.79,40.37S404.61,713.73,404.61,713.73Z" transform="translate(-123.63 -53.98)"/><path class="cls-2" d="M389.47,667.19s63.36-35.33,117.19-37.57l-3.92-16.82s-91.4,16.82-122.8,40.37S389.47,667.19,389.47,667.19Z" transform="translate(-123.63 -53.98)"/><path class="cls-2" d="M409.15,460.85s64.41-35.32,119.13-37.57l-4-16.82s-92.91,16.82-124.83,40.37S409.15,460.85,409.15,460.85Z" transform="translate(-123.63 -53.98)"/><path class="cls-2" d="M407.83,407.4s56.06-35.33,103.69-37.57L508.05,353s-80.87,16.82-108.65,40.37S407.83,407.4,407.83,407.4Z" transform="translate(-123.63 -53.98)"/><path class="cls-2" d="M415.27,513s63.36-35.33,117.18-37.57l-3.92-16.82s-91.4,16.82-122.8,40.37S415.27,513,415.27,513Z" transform="translate(-123.63 -53.98)"/><path class="cls-2" d="M497.07,671.27c-.17-7.3-2-13.63-4.24-20.34a121,121,0,0,0-28.22-46A312.86,312.86,0,0,1,439,580.65c-6.59-7-31.86-33.85-46.35-63.55-37.09-76,1.54-160.59,3.74-165.21,4.3-9.07,16.6-29.59,27.42-47.17l22.05,19.07c-1.11,3.81-21,59.2-22.06,62.61-13.75,43.2-19.4,68.19-.12,109.78,2.5,5.4,8,13.32,19.06,29.15,32.82,47.08,50.42,60.53,69.31,88.65,11,16.37,21.71,37.61,37.6,78.07l-97.19,35.13C457,724.71,497.75,701.72,497.07,671.27Z" transform="translate(-123.63 -53.98)"/><path class="cls-1" d="M454.18,291.14C325.39,291.14,221,395.55,221,524.33s104.4,233.21,233.19,233.21S687.37,653.12,687.37,524.33,583,291.14,454.18,291.14Zm-1.7,414.07A181.44,181.44,0,1,1,633.91,523.76C633.91,624,552.68,705.21,452.48,705.21Z" transform="translate(-123.63 -53.98)"/><rect class="cls-1" x="601.94" y="668.43" width="337.12" height="73.29" rx="26.24" transform="translate(298.74 -333.59) rotate(28.07)"/><text class="cls-3" transform="translate(127.95 276.48) rotate(-34.98) scale(0.99 1)">T</text><text class="cls-3" transform="matrix(0.94, -0.29, 0.3, 0.96, 195.24, 225.72)">F</text><text class="cls-4" transform="translate(287.86 196.39) rotate(1.15) scale(0.99 1)">P</text><text class="cls-4" transform="translate(370.07 199.05) rotate(13.73) scale(0.99 1)">r</text><text class="cls-4" transform="translate(415.02 210.13) rotate(21.86) scale(0.99 1)">i</text><text class="cls-4" transform="matrix(0.82, 0.56, -0.56, 0.83, 445.42, 217.73)">o</text></svg>