<?xml version="1.0"?>
<svg xmlns="http://www.w3.org/2000/svg" xmlns:xlink="http://www.w3.org/1999/xlink" xmlns:svgjs="http://svgjs.com/svgjs" version="1.1" width="512" height="512" x="0" y="0" viewBox="0 0 24 24" style="enable-background:new 0 0 512 512" xml:space="preserve"><g><path xmlns="http://www.w3.org/2000/svg" d="M12,0A12,12,0,1,0,24,12,12.013,12.013,0,0,0,12,0Zm0,22A10,10,0,1,1,22,12,10.011,10.011,0,0,1,12,22Z" fill="#ffffff" data-original="#000000"/><path xmlns="http://www.w3.org/2000/svg" d="M12,10H11a1,1,0,0,0,0,2h1v6a1,1,0,0,0,2,0V12A2,2,0,0,0,12,10Z" fill="#ffffff" data-original="#000000"/><circle xmlns="http://www.w3.org/2000/svg" cx="12" cy="6.5" r="1.5" fill="#ffffff" data-original="#000000"/></g></svg>
